<svg width="18" height="24" viewBox="0 0 18 24" fill="none" xmlns="http://www.w3.org/2000/svg">
<g clip-path="url(#clip0)">
<path d="M16.3513 21.6057L16.8456 22.1191C16.871 22.1386 16.8885 22.1675 16.8948 22.2C16.9011 22.2326 16.8956 22.2665 16.8795 22.2949L16.2024 23.458L15.7318 22.679L16.3513 21.6057Z" fill="#353635"/>
<path d="M7.16343 17.2946V22.1298C7.16343 22.4421 7.16343 22.4385 6.86552 22.4421C5.41935 22.4751 3.97497 22.3159 2.5661 21.9683C2.27834 21.8929 2.27834 21.8929 2.27834 21.5698C2.27834 18.9782 2.27834 17.2336 2.27834 14.6455C2.28315 14.577 2.27173 14.5082 2.24512 14.4456C2.21852 14.3829 2.17757 14.3282 2.126 14.2866C1.69268 13.8845 1.25935 13.4681 0.826021 13.0589C0.765759 13.0202 0.715927 12.9657 0.681342 12.9006C0.646756 12.8355 0.628586 12.7621 0.628586 12.6874C0.628586 12.6127 0.646756 12.5393 0.681342 12.4742C0.715927 12.4091 0.765759 12.3546 0.826021 12.3159C1.2774 11.8923 1.71976 11.4735 2.15309 11.0595C2.19751 11.0211 2.23288 10.9722 2.25639 10.9168C2.2799 10.8613 2.29089 10.8008 2.2885 10.7401C2.2885 7.58361 2.2885 4.42716 2.2885 1.27071C2.29363 1.16116 2.2598 1.05356 2.19371 0.969187C2.07184 0.814835 1.95673 0.653303 1.85517 0.495361C1.82027 0.4656 1.79476 0.425254 1.78206 0.379713C1.76936 0.334172 1.77006 0.285605 1.78408 0.2405C1.80517 0.196736 1.83789 0.160489 1.87821 0.136244C1.91852 0.112 1.96466 0.100822 2.0109 0.104096C3.81192 0.0753791 5.61632 0.0753791 7.41733 0.0717895C7.46602 0.0633074 7.51599 0.0716365 7.55988 0.095549C7.60376 0.119462 7.63924 0.157692 7.66108 0.204604C7.68042 0.252647 7.68494 0.305944 7.674 0.356876C7.66306 0.407808 7.6372 0.453767 7.60014 0.488182C7.49181 0.631766 7.39025 0.782528 7.26161 0.918933C7.22564 0.957209 7.20355 1.0077 7.19922 1.06153C7.19489 1.11536 7.20858 1.16909 7.23791 1.21328C7.82922 2.47442 8.41714 3.73437 9.00169 4.99312C9.79386 6.70894 10.5838 8.42477 11.3714 10.1406C11.4087 10.216 11.4222 10.3524 11.5238 10.3344C11.6253 10.3165 11.5983 10.1729 11.5983 10.0832C11.5983 7.13251 11.5983 4.18546 11.5983 1.23482C11.604 1.09457 11.5592 0.957251 11.473 0.850731C11.3525 0.709093 11.2395 0.560496 11.1345 0.405621C11.0126 0.222552 11.0972 0.0466624 11.3071 0.0466624H11.3782L16.568 -2.25956e-06C16.6305 -0.00317819 16.6932 0.00286204 16.7542 0.0179457C16.7906 0.0241582 16.8246 0.0411231 16.8524 0.0668968C16.8801 0.0926706 16.9005 0.126211 16.9111 0.163674C16.9217 0.201138 16.9221 0.24101 16.9123 0.278722C16.9025 0.316434 16.8829 0.350461 16.8557 0.376905C16.7271 0.563563 16.5917 0.735864 16.4529 0.926112C16.3965 0.995772 16.3674 1.08569 16.3716 1.17738C16.3716 4.41519 16.3716 7.65181 16.3716 10.8872C16.3717 10.9473 16.386 11.0064 16.4132 11.059C16.4404 11.1117 16.4797 11.1563 16.5274 11.1888C16.937 11.5764 17.35 11.9569 17.7529 12.3482C18.0169 12.603 18.0068 12.8328 17.7529 13.0876C17.3466 13.4717 16.9404 13.863 16.5274 14.2435C16.4775 14.286 16.4387 14.3413 16.4144 14.404C16.3902 14.4668 16.3813 14.5351 16.3886 14.6025C16.3886 17.0757 16.3886 19.391 16.3886 21.8642C16.3886 22.1621 16.3886 21.6775 16.1177 21.7242C14.8956 21.8965 13.7107 22.0796 12.5259 22.2555C12.0824 22.3129 11.6355 22.3524 11.1717 22.4098C10.9821 22.4385 10.9043 22.3631 10.8332 22.1729C9.67537 18.4433 8.51419 15.3527 7.34963 11.6267C7.32254 11.5369 7.32254 11.3682 7.21421 11.3862C7.10588 11.4041 7.15327 11.5728 7.14989 11.6698C7.16004 13.5328 7.16343 15.4137 7.16343 17.2946Z" fill="#353635"/>
<path d="M1.15776 1.40351L1.78405 0.240479H7.66105" fill="#353635"/>
<path d="M7.66109 0.384094L7.03818 1.55071L7.13297 1.25995L6.88245 1.04458L2.23773 1.46815L1.86195 1.25636" fill="#353635"/>
<path d="M0.0372467 13.6907C0.0372467 13.6584 0.680466 12.4882 0.680466 12.4882L1.35754 12.3877L0.0372467 13.6907Z" fill="#353635"/>
<path d="M6.50323 23.5621L7.1363 22.3883L6.89594 21.7314L6.5337 21.7098L6.50323 23.5621Z" fill="#353635"/>
<path d="M15.7284 22.7688L16.3513 21.6057L16.1685 21.1391L15.7487 21.1786L15.7284 22.7688Z" fill="#353635"/>
<path d="M17.2857 14.0138L18 12.6426L17.113 12.5385L16.7136 13.321L17.2857 14.0138Z" fill="#353635"/>
<path d="M10.5082 1.30302L11.1412 0.12204L11.9029 1.18815L10.5082 1.30302Z" fill="#353635"/>
<path d="M16.2633 1.46455L16.8557 0.366137L16.4461 0.247681L15.7589 1.03021L16.2633 1.46455Z" fill="#353635"/>
<path d="M6.53705 18.4577V23.2929C6.53705 23.6051 6.53705 23.6051 6.23914 23.6051C4.79402 23.6398 3.35056 23.4806 1.94311 23.1313C1.65197 23.0559 1.65197 23.0559 1.65197 22.7329C1.65197 20.1448 1.65197 18.3967 1.65197 15.8086C1.65616 15.7401 1.64447 15.6716 1.61792 15.609C1.59136 15.5464 1.55074 15.4917 1.49963 15.4496C1.05953 15.0476 0.629588 14.6312 0.196261 14.222C0.135998 14.1833 0.0861667 14.1287 0.0515812 14.0637C0.0169956 13.9986 -0.00117493 13.9251 -0.00117493 13.8504C-0.00117493 13.7757 0.0169956 13.7023 0.0515812 13.6372C0.0861667 13.5721 0.135998 13.5176 0.196261 13.4789C0.632973 13.0553 1.07646 12.6389 1.52332 12.2226C1.56674 12.1834 1.60119 12.1343 1.62406 12.079C1.64693 12.0236 1.65764 11.9635 1.65535 11.9031C1.65535 8.74903 1.65535 5.59258 1.65535 2.43374C1.66094 2.32351 1.62571 2.21532 1.55718 2.13222C1.43531 1.98146 1.32359 1.81633 1.21864 1.65839C1.18781 1.62568 1.16684 1.58398 1.1584 1.5386C1.14996 1.49322 1.15443 1.44621 1.17125 1.40353C1.19267 1.36006 1.22546 1.32408 1.2657 1.29988C1.30593 1.27569 1.35189 1.26431 1.39807 1.26713C3.20247 1.23841 5.00348 1.23841 6.81465 1.23482C6.86321 1.22799 6.91257 1.23705 6.95613 1.26079C6.99969 1.28452 7.03537 1.3218 7.0584 1.36764C7.07633 1.4162 7.07978 1.46943 7.06828 1.52014C7.05678 1.57086 7.03088 1.6166 6.99408 1.65121C6.88575 1.7948 6.78419 1.94556 6.65554 2.08196C6.61906 2.11979 6.59635 2.17006 6.59139 2.2239C6.58644 2.27775 6.59956 2.33172 6.62846 2.37631C7.213 3.63745 7.79641 4.8974 8.37869 6.15615L10.7485 11.3036C10.7823 11.379 10.7958 11.519 10.9008 11.4975C11.0057 11.4759 10.9719 11.3359 10.9753 11.2462C10.9753 8.30033 10.9753 5.35088 10.9753 2.39785C10.9807 2.25765 10.9359 2.12046 10.85 2.01376C10.7349 1.87377 10.6232 1.723 10.5115 1.56865C10.3998 1.4143 10.4742 1.20969 10.6841 1.20969H10.7552L15.9213 1.17739C15.9842 1.16837 16.048 1.16837 16.1109 1.17739C16.147 1.18413 16.1807 1.20149 16.208 1.22748C16.2353 1.25348 16.2552 1.28707 16.2654 1.32444C16.2756 1.36182 16.2758 1.40148 16.2658 1.43894C16.2558 1.47639 16.2362 1.51014 16.2091 1.53635C16.0838 1.72659 15.945 1.8953 15.8096 2.08914C15.7528 2.15735 15.7225 2.24587 15.7249 2.33682C15.7249 5.57464 15.7249 8.81125 15.7249 12.0467C15.7269 12.1072 15.7423 12.1664 15.77 12.2195C15.7976 12.2725 15.8367 12.3178 15.8841 12.3518C16.2937 12.7359 16.7033 13.1164 17.1062 13.5076C17.3736 13.7625 17.3635 13.9922 17.1062 14.2471C16.6965 14.6312 16.2903 15.0224 15.8773 15.4029C15.8282 15.4461 15.7898 15.5015 15.7656 15.564C15.7414 15.6266 15.7321 15.6946 15.7385 15.7619C15.7385 18.2351 15.7385 20.0694 15.7385 22.5462C15.7385 22.8442 15.7385 22.8406 15.4677 22.9052C14.2726 23.1098 13.0776 23.2641 11.8792 23.4364C11.4323 23.4939 10.9854 23.5334 10.525 23.5944C10.3354 23.6195 10.2576 23.5441 10.1865 23.3539C9.06592 19.592 7.90136 16.5121 6.73679 12.7754C6.70971 12.682 6.70971 12.5133 6.60476 12.5313C6.49982 12.5492 6.54044 12.7179 6.54044 12.8148C6.53818 14.6958 6.53705 16.5767 6.53705 18.4577Z" fill="#F04D4B"/>
<path d="M7.16007 22.2555L7.52907 22.6898C7.55409 22.7104 7.57128 22.7399 7.57749 22.7729C7.58371 22.8058 7.57854 22.84 7.56293 22.8693L6.9671 23.878L6.59471 23.1959L7.16007 22.2555Z" fill="#353635"/>
<path d="M6.77072 23.9821H6.69963C4.9257 23.9821 3.25671 23.9821 1.48278 23.9821C1.41874 23.9911 1.35385 23.9911 1.28981 23.9821C1.2545 23.9741 1.22183 23.9563 1.19517 23.9305C1.16852 23.9046 1.14883 23.8718 1.13814 23.8352C1.12745 23.7986 1.12614 23.7597 1.13435 23.7224C1.14257 23.6852 1.16 23.6509 1.18486 23.6231C1.31689 23.4293 1.45569 23.239 1.59788 23.056C1.62554 23.0207 1.64729 22.9806 1.6622 22.9375H6.49989C6.52124 23.0057 6.55455 23.069 6.59807 23.1242C6.71951 23.2812 6.83254 23.4454 6.9366 23.6159C7.06186 23.7882 6.97723 23.9641 6.77072 23.9821Z" fill="#F04D4B"/>
<path d="M16.2159 23.44C16.1958 23.4888 16.1626 23.5301 16.1205 23.5588C16.0783 23.5876 16.029 23.6025 15.9789 23.6016C14.0323 23.7631 12.167 23.8636 10.2238 23.9964C10.1087 23.9964 9.92926 23.9964 9.86832 23.8959C9.80739 23.7954 9.86832 23.6805 9.9191 23.5836C10.024 23.4221 10.1256 23.2534 10.2407 23.0954C10.2692 23.0591 10.289 23.016 10.2983 22.9698L15.6912 22.6108C15.706 22.6341 15.723 22.6557 15.7419 22.6755C15.8841 22.8334 16.0161 22.9985 16.1516 23.1636C16.1874 23.1974 16.2127 23.2419 16.2242 23.2912C16.2357 23.3406 16.2328 23.3925 16.2159 23.44Z" fill="#F04D4B"/>
</g>
<defs>
<clipPath id="clip0">
<rect width="18" height="24" fill="white"/>
</clipPath>
</defs>
</svg>
