<svg width="25" height="24" viewBox="0 0 25 24" fill="none" xmlns="http://www.w3.org/2000/svg">
<path d="M14.3001 12.1773C14.2768 12.1541 14.2584 12.1265 14.2458 12.0962C14.2332 12.0658 14.2267 12.0332 14.2267 12.0003C14.2267 11.9675 14.2332 11.9349 14.2458 11.9045C14.2584 11.8741 14.2768 11.8466 14.3001 11.8233L23.5631 2.56133C23.8444 2.27967 24.0022 1.89782 24.002 1.49977C24.0017 1.10173 23.8433 0.720097 23.5616 0.438835C23.28 0.157572 22.8981 -0.000280925 22.5001 3.75321e-07C22.102 0.000281676 21.7204 0.158675 21.4391 0.440334L12.1771 9.69833C12.1539 9.72162 12.1263 9.74009 12.0959 9.75269C12.0656 9.76529 12.033 9.77178 12.0001 9.77178C11.9672 9.77178 11.9347 9.76529 11.9043 9.75269C11.8739 9.74009 11.8463 9.72162 11.8231 9.69833L2.56113 0.440334C2.42186 0.301002 2.25651 0.190464 2.07453 0.115033C1.89254 0.0396018 1.69748 0.000753889 1.50048 0.00070746C1.10262 0.000613692 0.721022 0.158572 0.439627 0.439835C0.158232 0.721097 9.38099e-05 1.10262 4.17235e-08 1.50048C-9.37265e-05 1.89834 0.157865 2.27994 0.439127 2.56133L9.70013 11.8233C9.72341 11.8466 9.74188 11.8741 9.75448 11.9045C9.76709 11.9349 9.77357 11.9675 9.77357 12.0003C9.77357 12.0332 9.76709 12.0658 9.75448 12.0962C9.74188 12.1265 9.72341 12.1541 9.70013 12.1773L0.439127 21.4403C0.29986 21.5797 0.189401 21.7451 0.114055 21.9271C0.0387096 22.1091 -4.63876e-05 22.3042 4.17235e-08 22.5012C9.38099e-05 22.899 0.158232 23.2806 0.439627 23.5618C0.57896 23.7011 0.744358 23.8116 0.92638 23.8869C1.1084 23.9623 1.30348 24.001 1.50048 24.001C1.89834 24.0009 2.27987 23.8427 2.56113 23.5613L11.8231 14.2983C11.8463 14.2751 11.8739 14.2566 11.9043 14.244C11.9347 14.2314 11.9672 14.2249 12.0001 14.2249C12.033 14.2249 12.0656 14.2314 12.0959 14.244C12.1263 14.2566 12.1539 14.2751 12.1771 14.2983L21.4391 23.5613C21.7204 23.8427 22.1019 24.0009 22.4998 24.001C22.8976 24.0011 23.2792 23.8431 23.5606 23.5618C23.842 23.2806 24.0002 22.899 24.0003 22.5012C24.0003 22.1033 23.8424 21.7217 23.5611 21.4403L14.3001 12.1773Z" fill="white"/>
</svg>
